<mxfile host="Electron" agent="Mozilla/5.0 (Windows NT 10.0; Win64; x64) AppleWebKit/537.36 (KHTML, like Gecko) draw.io/28.1.2 Chrome/138.0.7204.243 Electron/37.4.0 Safari/537.36" version="28.1.2">
  <diagram name="ページ1" id="DIeiAo9Q_YViylGoopkz">
    <mxGraphModel dx="146" dy="338" grid="1" gridSize="10" guides="1" tooltips="1" connect="1" arrows="1" fold="1" page="1" pageScale="1" pageWidth="1169" pageHeight="827" math="0" shadow="0">
      <root>
        <mxCell id="0" />
        <mxCell id="1" parent="0" />
        <mxCell id="h7smvrsQqOG3ofRVsXkP-2" value="&lt;font style=&quot;font-size: 7px;&quot;&gt;利用者&lt;/font&gt;" style="rounded=0;whiteSpace=wrap;html=1;" vertex="1" parent="1">
          <mxGeometry x="170" y="250" width="60" height="30" as="geometry" />
        </mxCell>
        <mxCell id="h7smvrsQqOG3ofRVsXkP-3" value="" style="endArrow=diamondThin;endFill=0;endSize=10;html=1;rounded=0;entryX=0.5;entryY=1;entryDx=0;entryDy=0;startSize=5;exitX=0.5;exitY=0;exitDx=0;exitDy=0;" edge="1" parent="1" source="h7smvrsQqOG3ofRVsXkP-4" target="h7smvrsQqOG3ofRVsXkP-2">
          <mxGeometry width="160" relative="1" as="geometry">
            <mxPoint x="100" y="320" as="sourcePoint" />
            <mxPoint x="180" y="310" as="targetPoint" />
            <Array as="points">
              <mxPoint x="200" y="300" />
            </Array>
          </mxGeometry>
        </mxCell>
        <mxCell id="h7smvrsQqOG3ofRVsXkP-4" value="&lt;span style=&quot;font-size: 7px;&quot;&gt;図書カード&lt;/span&gt;" style="rounded=0;whiteSpace=wrap;html=1;" vertex="1" parent="1">
          <mxGeometry x="180" y="300" width="60" height="30" as="geometry" />
        </mxCell>
        <mxCell id="h7smvrsQqOG3ofRVsXkP-7" value="" style="endArrow=diamondThin;endFill=0;endSize=10;html=1;rounded=0;entryX=0.08;entryY=1.027;entryDx=0;entryDy=0;startSize=5;exitX=0.5;exitY=0;exitDx=0;exitDy=0;entryPerimeter=0;" edge="1" parent="1" source="h7smvrsQqOG3ofRVsXkP-10" target="h7smvrsQqOG3ofRVsXkP-4">
          <mxGeometry width="160" relative="1" as="geometry">
            <mxPoint x="40" y="390" as="sourcePoint" />
            <mxPoint x="40" y="350" as="targetPoint" />
          </mxGeometry>
        </mxCell>
        <mxCell id="h7smvrsQqOG3ofRVsXkP-8" value="&lt;span style=&quot;font-size: 7px;&quot;&gt;電話番号&lt;/span&gt;" style="rounded=0;whiteSpace=wrap;html=1;" vertex="1" parent="1">
          <mxGeometry x="150" y="384" width="60" height="34" as="geometry" />
        </mxCell>
        <mxCell id="h7smvrsQqOG3ofRVsXkP-9" value="" style="endArrow=diamondThin;endFill=0;endSize=10;html=1;rounded=0;entryX=0.356;entryY=1.044;entryDx=0;entryDy=0;startSize=5;exitX=0.5;exitY=0;exitDx=0;exitDy=0;entryPerimeter=0;" edge="1" parent="1" source="h7smvrsQqOG3ofRVsXkP-6" target="h7smvrsQqOG3ofRVsXkP-4">
          <mxGeometry width="160" relative="1" as="geometry">
            <mxPoint x="150" y="394" as="sourcePoint" />
            <mxPoint x="190" y="360" as="targetPoint" />
          </mxGeometry>
        </mxCell>
        <mxCell id="h7smvrsQqOG3ofRVsXkP-10" value="&lt;span style=&quot;font-size: 7px;&quot;&gt;氏名&lt;/span&gt;" style="rounded=0;whiteSpace=wrap;html=1;" vertex="1" parent="1">
          <mxGeometry x="30" y="384" width="60" height="26" as="geometry" />
        </mxCell>
        <mxCell id="h7smvrsQqOG3ofRVsXkP-11" value="" style="endArrow=diamondThin;endFill=0;endSize=10;html=1;rounded=0;entryX=0.25;entryY=1;entryDx=0;entryDy=0;startSize=5;exitX=0.458;exitY=0.102;exitDx=0;exitDy=0;exitPerimeter=0;" edge="1" parent="1" source="h7smvrsQqOG3ofRVsXkP-6" target="h7smvrsQqOG3ofRVsXkP-4">
          <mxGeometry width="160" relative="1" as="geometry">
            <mxPoint x="210" y="450" as="sourcePoint" />
            <mxPoint x="110" y="380" as="targetPoint" />
          </mxGeometry>
        </mxCell>
        <mxCell id="h7smvrsQqOG3ofRVsXkP-13" value="" style="endArrow=diamondThin;endFill=0;endSize=10;html=1;rounded=0;entryX=0.453;entryY=1.009;entryDx=0;entryDy=0;startSize=5;exitX=0.5;exitY=0;exitDx=0;exitDy=0;entryPerimeter=0;" edge="1" parent="1" source="h7smvrsQqOG3ofRVsXkP-12" target="h7smvrsQqOG3ofRVsXkP-4">
          <mxGeometry width="160" relative="1" as="geometry">
            <mxPoint x="230" y="459" as="sourcePoint" />
            <mxPoint x="251" y="370" as="targetPoint" />
          </mxGeometry>
        </mxCell>
        <mxCell id="h7smvrsQqOG3ofRVsXkP-14" value="&lt;span style=&quot;font-size: 7px;&quot;&gt;図書&lt;/span&gt;" style="rounded=0;whiteSpace=wrap;html=1;" vertex="1" parent="1">
          <mxGeometry x="290" y="300" width="60" height="30" as="geometry" />
        </mxCell>
        <mxCell id="h7smvrsQqOG3ofRVsXkP-15" value="" style="endArrow=none;html=1;rounded=0;entryX=0;entryY=0.5;entryDx=0;entryDy=0;exitX=1;exitY=0.5;exitDx=0;exitDy=0;" edge="1" parent="1" source="h7smvrsQqOG3ofRVsXkP-4" target="h7smvrsQqOG3ofRVsXkP-14">
          <mxGeometry width="50" height="50" relative="1" as="geometry">
            <mxPoint x="250" y="410" as="sourcePoint" />
            <mxPoint x="300" y="360" as="targetPoint" />
          </mxGeometry>
        </mxCell>
        <mxCell id="h7smvrsQqOG3ofRVsXkP-16" value="検索" style="text;html=1;align=center;verticalAlign=middle;whiteSpace=wrap;rounded=0;" vertex="1" parent="1">
          <mxGeometry x="250" y="290" width="30" height="20" as="geometry" />
        </mxCell>
        <mxCell id="h7smvrsQqOG3ofRVsXkP-18" value="&lt;div&gt;&lt;font style=&quot;font-size: 8px;&quot;&gt;貸し出し予約&lt;/font&gt;&lt;/div&gt;" style="rounded=0;whiteSpace=wrap;html=1;" vertex="1" parent="1">
          <mxGeometry x="90" y="250" width="60" height="30" as="geometry" />
        </mxCell>
        <mxCell id="h7smvrsQqOG3ofRVsXkP-21" value="&lt;span style=&quot;font-size: 8px;&quot;&gt;必要事項&lt;/span&gt;" style="rounded=0;whiteSpace=wrap;html=1;" vertex="1" parent="1">
          <mxGeometry x="30" y="290" width="60" height="30" as="geometry" />
        </mxCell>
        <mxCell id="h7smvrsQqOG3ofRVsXkP-22" value="" style="endArrow=diamondThin;endFill=0;endSize=10;html=1;rounded=0;entryX=0.5;entryY=1;entryDx=0;entryDy=0;startSize=5;exitX=0.5;exitY=0;exitDx=0;exitDy=0;" edge="1" parent="1" source="h7smvrsQqOG3ofRVsXkP-24" target="h7smvrsQqOG3ofRVsXkP-14">
          <mxGeometry width="160" relative="1" as="geometry">
            <mxPoint x="320" y="360" as="sourcePoint" />
            <mxPoint x="290" y="350" as="targetPoint" />
          </mxGeometry>
        </mxCell>
        <mxCell id="h7smvrsQqOG3ofRVsXkP-24" value="&lt;span style=&quot;font-size: 7px;&quot;&gt;著名&lt;/span&gt;" style="rounded=0;whiteSpace=wrap;html=1;" vertex="1" parent="1">
          <mxGeometry x="290" y="360" width="60" height="30" as="geometry" />
        </mxCell>
        <mxCell id="h7smvrsQqOG3ofRVsXkP-26" value="&lt;span style=&quot;font-size: 7px;&quot;&gt;著者&lt;/span&gt;" style="rounded=0;whiteSpace=wrap;html=1;" vertex="1" parent="1">
          <mxGeometry x="350" y="360" width="60" height="30" as="geometry" />
        </mxCell>
        <mxCell id="h7smvrsQqOG3ofRVsXkP-27" value="" style="endArrow=diamondThin;endFill=0;endSize=10;html=1;rounded=0;entryX=0.833;entryY=1;entryDx=0;entryDy=0;startSize=5;exitX=0.5;exitY=0;exitDx=0;exitDy=0;entryPerimeter=0;" edge="1" parent="1" source="h7smvrsQqOG3ofRVsXkP-26" target="h7smvrsQqOG3ofRVsXkP-14">
          <mxGeometry width="160" relative="1" as="geometry">
            <mxPoint x="380" y="340" as="sourcePoint" />
            <mxPoint x="380" y="310" as="targetPoint" />
          </mxGeometry>
        </mxCell>
        <mxCell id="h7smvrsQqOG3ofRVsXkP-28" value="&lt;span style=&quot;font-size: 7px;&quot;&gt;ID&lt;/span&gt;" style="rounded=0;whiteSpace=wrap;html=1;" vertex="1" parent="1">
          <mxGeometry x="270" y="388" width="60" height="30" as="geometry" />
        </mxCell>
        <mxCell id="h7smvrsQqOG3ofRVsXkP-29" value="&lt;span style=&quot;font-size: 7px;&quot;&gt;パスワード&lt;/span&gt;" style="rounded=0;whiteSpace=wrap;html=1;" vertex="1" parent="1">
          <mxGeometry x="330" y="388" width="60" height="30" as="geometry" />
        </mxCell>
        <mxCell id="h7smvrsQqOG3ofRVsXkP-30" value="" style="endArrow=diamondThin;endFill=0;endSize=10;html=1;rounded=0;startSize=5;exitX=0.5;exitY=0;exitDx=0;exitDy=0;" edge="1" parent="1" source="h7smvrsQqOG3ofRVsXkP-28">
          <mxGeometry width="160" relative="1" as="geometry">
            <mxPoint x="68" y="520" as="sourcePoint" />
            <mxPoint x="230" y="330" as="targetPoint" />
          </mxGeometry>
        </mxCell>
        <mxCell id="h7smvrsQqOG3ofRVsXkP-31" value="" style="endArrow=diamondThin;endFill=0;endSize=10;html=1;rounded=0;startSize=5;entryX=0.68;entryY=1.073;entryDx=0;entryDy=0;entryPerimeter=0;" edge="1" parent="1" source="h7smvrsQqOG3ofRVsXkP-12" target="h7smvrsQqOG3ofRVsXkP-4">
          <mxGeometry width="160" relative="1" as="geometry">
            <mxPoint x="190" y="440" as="sourcePoint" />
            <mxPoint x="190" y="400" as="targetPoint" />
          </mxGeometry>
        </mxCell>
        <mxCell id="h7smvrsQqOG3ofRVsXkP-32" value="&lt;span style=&quot;font-size: 7px;&quot;&gt;どこの棚か&lt;/span&gt;" style="rounded=0;whiteSpace=wrap;html=1;" vertex="1" parent="1">
          <mxGeometry x="410" y="360" width="60" height="30" as="geometry" />
        </mxCell>
        <mxCell id="h7smvrsQqOG3ofRVsXkP-33" value="&lt;span style=&quot;font-size: 7px;&quot;&gt;貸し出し中か&lt;/span&gt;" style="rounded=0;whiteSpace=wrap;html=1;" vertex="1" parent="1">
          <mxGeometry x="370" y="300" width="60" height="30" as="geometry" />
        </mxCell>
        <mxCell id="h7smvrsQqOG3ofRVsXkP-34" value="" style="endArrow=diamondThin;endFill=0;endSize=10;html=1;rounded=0;entryX=0.651;entryY=0.993;entryDx=0;entryDy=0;startSize=5;exitX=0.5;exitY=0;exitDx=0;exitDy=0;entryPerimeter=0;" edge="1" parent="1" source="h7smvrsQqOG3ofRVsXkP-32" target="h7smvrsQqOG3ofRVsXkP-14">
          <mxGeometry width="160" relative="1" as="geometry">
            <mxPoint x="407.46" y="380.21" as="sourcePoint" />
            <mxPoint x="299.99999999999994" y="349.99999999999994" as="targetPoint" />
          </mxGeometry>
        </mxCell>
        <mxCell id="h7smvrsQqOG3ofRVsXkP-35" value="" style="endArrow=diamondThin;endFill=0;endSize=10;html=1;rounded=0;entryX=1;entryY=0.5;entryDx=0;entryDy=0;startSize=5;exitX=0;exitY=0.5;exitDx=0;exitDy=0;" edge="1" parent="1" source="h7smvrsQqOG3ofRVsXkP-33" target="h7smvrsQqOG3ofRVsXkP-14">
          <mxGeometry width="160" relative="1" as="geometry">
            <mxPoint x="430" y="370" as="sourcePoint" />
            <mxPoint x="380" y="340" as="targetPoint" />
          </mxGeometry>
        </mxCell>
        <mxCell id="h7smvrsQqOG3ofRVsXkP-36" value="&lt;span style=&quot;font-size: 7px;&quot;&gt;借りている本&lt;/span&gt;" style="rounded=0;whiteSpace=wrap;html=1;" vertex="1" parent="1">
          <mxGeometry x="180" y="450" width="60" height="30" as="geometry" />
        </mxCell>
        <mxCell id="h7smvrsQqOG3ofRVsXkP-37" value="" style="endArrow=diamondThin;endFill=0;endSize=10;html=1;rounded=0;startSize=5;entryX=0.5;entryY=1;entryDx=0;entryDy=0;exitX=0.498;exitY=-0.073;exitDx=0;exitDy=0;exitPerimeter=0;" edge="1" parent="1" source="h7smvrsQqOG3ofRVsXkP-36" target="h7smvrsQqOG3ofRVsXkP-4">
          <mxGeometry width="160" relative="1" as="geometry">
            <mxPoint x="210" y="428" as="sourcePoint" />
            <mxPoint x="211" y="350" as="targetPoint" />
          </mxGeometry>
        </mxCell>
        <mxCell id="h7smvrsQqOG3ofRVsXkP-38" value="&lt;span style=&quot;font-size: 8px;&quot;&gt;貸し出し期限&lt;/span&gt;" style="rounded=0;whiteSpace=wrap;html=1;" vertex="1" parent="1">
          <mxGeometry x="190" y="550" width="60" height="30" as="geometry" />
        </mxCell>
        <mxCell id="h7smvrsQqOG3ofRVsXkP-39" value="" style="endArrow=diamondThin;endFill=0;endSize=10;html=1;rounded=0;startSize=5;exitX=0.5;exitY=0;exitDx=0;exitDy=0;entryX=0.5;entryY=1;entryDx=0;entryDy=0;" edge="1" parent="1" source="h7smvrsQqOG3ofRVsXkP-38" target="h7smvrsQqOG3ofRVsXkP-36">
          <mxGeometry width="160" relative="1" as="geometry">
            <mxPoint x="270" y="420" as="sourcePoint" />
            <mxPoint x="270" y="380" as="targetPoint" />
          </mxGeometry>
        </mxCell>
        <mxCell id="h7smvrsQqOG3ofRVsXkP-40" value="" style="endArrow=diamondThin;endFill=0;endSize=10;html=1;rounded=0;startSize=5;exitX=0.5;exitY=0;exitDx=0;exitDy=0;entryX=0.5;entryY=1;entryDx=0;entryDy=0;" edge="1" parent="1" source="h7smvrsQqOG3ofRVsXkP-21" target="h7smvrsQqOG3ofRVsXkP-18">
          <mxGeometry width="160" relative="1" as="geometry">
            <mxPoint x="250" y="710" as="sourcePoint" />
            <mxPoint x="240" y="640" as="targetPoint" />
          </mxGeometry>
        </mxCell>
        <mxCell id="h7smvrsQqOG3ofRVsXkP-42" value="" style="endArrow=diamondThin;endFill=0;endSize=10;html=1;rounded=0;startSize=5;exitX=1;exitY=0.5;exitDx=0;exitDy=0;entryX=0;entryY=0.5;entryDx=0;entryDy=0;" edge="1" parent="1" source="h7smvrsQqOG3ofRVsXkP-18" target="h7smvrsQqOG3ofRVsXkP-2">
          <mxGeometry width="160" relative="1" as="geometry">
            <mxPoint x="230" y="220" as="sourcePoint" />
            <mxPoint x="230" y="180" as="targetPoint" />
          </mxGeometry>
        </mxCell>
        <mxCell id="h7smvrsQqOG3ofRVsXkP-43" value="" style="endArrow=diamondThin;endFill=0;endSize=10;html=1;rounded=0;startSize=5;entryX=1;entryY=1;entryDx=0;entryDy=0;exitX=0.5;exitY=0;exitDx=0;exitDy=0;" edge="1" parent="1" source="h7smvrsQqOG3ofRVsXkP-44" target="h7smvrsQqOG3ofRVsXkP-4">
          <mxGeometry width="160" relative="1" as="geometry">
            <mxPoint x="291.8390944908405" y="430" as="sourcePoint" />
            <mxPoint x="230" y="180" as="targetPoint" />
          </mxGeometry>
        </mxCell>
        <mxCell id="h7smvrsQqOG3ofRVsXkP-44" value="&lt;span style=&quot;font-size: 7px;&quot;&gt;あと何冊借りることができるか&lt;/span&gt;" style="rounded=0;whiteSpace=wrap;html=1;" vertex="1" parent="1">
          <mxGeometry x="260" y="444" width="60" height="30" as="geometry" />
        </mxCell>
        <mxCell id="h7smvrsQqOG3ofRVsXkP-45" value="" style="endArrow=diamondThin;endFill=0;endSize=10;html=1;rounded=0;startSize=5;exitX=0.5;exitY=0;exitDx=0;exitDy=0;" edge="1" parent="1" source="h7smvrsQqOG3ofRVsXkP-8">
          <mxGeometry width="160" relative="1" as="geometry">
            <mxPoint x="70" y="450" as="sourcePoint" />
            <mxPoint x="200" y="330" as="targetPoint" />
          </mxGeometry>
        </mxCell>
        <mxCell id="h7smvrsQqOG3ofRVsXkP-6" value="&lt;span style=&quot;font-size: 7px;&quot;&gt;住所&lt;/span&gt;" style="rounded=0;whiteSpace=wrap;html=1;" vertex="1" parent="1">
          <mxGeometry x="90" y="384" width="60" height="30" as="geometry" />
        </mxCell>
        <mxCell id="h7smvrsQqOG3ofRVsXkP-46" value="" style="endArrow=diamondThin;endFill=0;endSize=10;html=1;rounded=0;startSize=5;" edge="1" parent="1" source="h7smvrsQqOG3ofRVsXkP-29" target="h7smvrsQqOG3ofRVsXkP-4">
          <mxGeometry width="160" relative="1" as="geometry">
            <mxPoint x="258" y="680" as="sourcePoint" />
            <mxPoint x="221" y="332" as="targetPoint" />
          </mxGeometry>
        </mxCell>
        <mxCell id="h7smvrsQqOG3ofRVsXkP-12" value="&lt;span style=&quot;font-size: 7px;&quot;&gt;メールアドレス&lt;/span&gt;" style="rounded=0;whiteSpace=wrap;html=1;" vertex="1" parent="1">
          <mxGeometry x="210" y="384" width="60" height="30" as="geometry" />
        </mxCell>
      </root>
    </mxGraphModel>
  </diagram>
</mxfile>
